<svg width="16" height="16" viewBox="0 0 24 24" fill="none" xmlns="http://www.w3.org/2000/svg">
<path d="M5.62505 6.6498C5.34172 6.6498 5.10422 6.5498 4.91255 6.3498C4.72088 6.1498 4.62505 5.90814 4.62505 5.6248C4.62505 5.34147 4.72088 5.10397 4.91255 4.9123C5.10422 4.72064 5.34172 4.6248 5.62505 4.6248C5.90838 4.6248 6.15005 4.72064 6.35005 4.9123C6.55005 5.10397 6.65005 5.34147 6.65005 5.6248C6.65005 5.90814 6.55005 6.1498 6.35005 6.3498C6.15005 6.5498 5.90838 6.6498 5.62505 6.6498ZM9.67505 4.3248C9.39172 4.3248 9.15005 4.2248 8.95005 4.0248C8.75005 3.8248 8.65005 3.58314 8.65005 3.2998C8.65005 3.01647 8.75005 2.77897 8.95005 2.5873C9.15005 2.39564 9.39172 2.2998 9.67505 2.2998C9.95838 2.2998 10.1959 2.39564 10.3875 2.5873C10.5792 2.77897 10.675 3.01647 10.675 3.2998C10.675 3.58314 10.5792 3.8248 10.3875 4.0248C10.1959 4.2248 9.95838 4.3248 9.67505 4.3248ZM14.325 4.3248C14.0417 4.3248 13.8042 4.2248 13.6125 4.0248C13.4209 3.8248 13.325 3.58314 13.325 3.2998C13.325 3.01647 13.4209 2.77897 13.6125 2.5873C13.8042 2.39564 14.0417 2.2998 14.325 2.2998C14.6084 2.2998 14.85 2.39564 15.05 2.5873C15.25 2.77897 15.35 3.01647 15.35 3.2998C15.35 3.58314 15.25 3.8248 15.05 4.0248C14.85 4.2248 14.6084 4.3248 14.325 4.3248ZM18.375 6.6498C18.0917 6.6498 17.85 6.5498 17.65 6.3498C17.45 6.1498 17.35 5.90814 17.35 5.6248C17.35 5.34147 17.45 5.0998 17.65 4.8998C17.85 4.6998 18.0917 4.5998 18.375 4.5998C18.6584 4.5998 18.8959 4.6998 19.0875 4.8998C19.2792 5.0998 19.375 5.34147 19.375 5.6248C19.375 5.90814 19.2792 6.1498 19.0875 6.3498C18.8959 6.5498 18.6584 6.6498 18.375 6.6498ZM20.7 10.6748C20.4167 10.6748 20.1751 10.579 19.975 10.3873C19.775 10.1956 19.675 9.95814 19.675 9.6748C19.675 9.39147 19.775 9.15397 19.975 8.9623C20.1751 8.77064 20.4167 8.6748 20.7 8.6748C20.9834 8.6748 21.2209 8.77064 21.4125 8.9623C21.6042 9.15397 21.7 9.39147 21.7 9.6748C21.7 9.95814 21.6042 10.1956 21.4125 10.3873C21.2209 10.579 20.9834 10.6748 20.7 10.6748ZM20.7 15.3498C20.4167 15.3498 20.1751 15.2498 19.975 15.0498C19.775 14.8498 19.675 14.6081 19.675 14.3248C19.675 14.0415 19.775 13.804 19.975 13.6123C20.1751 13.4206 20.4167 13.3248 20.7 13.3248C20.9834 13.3248 21.2209 13.4206 21.4125 13.6123C21.6042 13.804 21.7 14.0415 21.7 14.3248C21.7 14.6081 21.6042 14.8498 21.4125 15.0498C21.2209 15.2498 20.9834 15.3498 20.7 15.3498ZM18.375 19.3748C18.0917 19.3748 17.85 19.279 17.65 19.0873C17.45 18.8956 17.35 18.6581 17.35 18.3748C17.35 18.0915 17.45 17.8498 17.65 17.6498C17.85 17.4498 18.0917 17.3498 18.375 17.3498C18.6584 17.3498 18.8959 17.4498 19.0875 17.6498C19.2792 17.8498 19.375 18.0915 19.375 18.3748C19.375 18.6581 19.2792 18.8956 19.0875 19.0873C18.8959 19.279 18.6584 19.3748 18.375 19.3748ZM14.325 21.6998C14.0417 21.6998 13.8042 21.604 13.6125 21.4123C13.4209 21.2206 13.325 20.9831 13.325 20.6998C13.325 20.4165 13.4209 20.1748 13.6125 19.9748C13.8042 19.7748 14.0417 19.6748 14.325 19.6748C14.6084 19.6748 14.85 19.7748 15.05 19.9748C15.25 20.1748 15.35 20.4165 15.35 20.6998C15.35 20.9831 15.25 21.2206 15.05 21.4123C14.85 21.604 14.6084 21.6998 14.325 21.6998ZM9.67505 21.6998C9.39172 21.6998 9.15005 21.604 8.95005 21.4123C8.75005 21.2206 8.65005 20.9831 8.65005 20.6998C8.65005 20.4165 8.75005 20.1748 8.95005 19.9748C9.15005 19.7748 9.39172 19.6748 9.67505 19.6748C9.95838 19.6748 10.1959 19.7748 10.3875 19.9748C10.5792 20.1748 10.675 20.4165 10.675 20.6998C10.675 20.9831 10.5792 21.2206 10.3875 21.4123C10.1959 21.604 9.95838 21.6998 9.67505 21.6998ZM5.62505 19.3498C5.34172 19.3498 5.10422 19.254 4.91255 19.0623C4.72088 18.8706 4.62505 18.6331 4.62505 18.3498C4.62505 18.0665 4.72088 17.829 4.91255 17.6373C5.10422 17.4456 5.34172 17.3498 5.62505 17.3498C5.90838 17.3498 6.14588 17.4456 6.33755 17.6373C6.52922 17.829 6.62505 18.0665 6.62505 18.3498C6.62505 18.6331 6.52922 18.8706 6.33755 19.0623C6.14588 19.254 5.90838 19.3498 5.62505 19.3498ZM3.30005 15.3248C3.01672 15.3248 2.77922 15.2248 2.58755 15.0248C2.39588 14.8248 2.30005 14.5831 2.30005 14.2998C2.30005 14.0165 2.39588 13.779 2.58755 13.5873C2.77922 13.3956 3.01672 13.2998 3.30005 13.2998C3.58338 13.2998 3.82505 13.3956 4.02505 13.5873C4.22505 13.779 4.32505 14.0165 4.32505 14.2998C4.32505 14.5831 4.22505 14.8248 4.02505 15.0248C3.82505 15.2248 3.58338 15.3248 3.30005 15.3248ZM3.30005 10.6748C3.01672 10.6748 2.77922 10.579 2.58755 10.3873C2.39588 10.1956 2.30005 9.95814 2.30005 9.6748C2.30005 9.39147 2.39588 9.1498 2.58755 8.9498C2.77922 8.7498 3.01672 8.6498 3.30005 8.6498C3.58338 8.6498 3.82505 8.7498 4.02505 8.9498C4.22505 9.1498 4.32505 9.39147 4.32505 9.6748C4.32505 9.95814 4.22505 10.1956 4.02505 10.3873C3.82505 10.579 3.58338 10.6748 3.30005 10.6748ZM13 11.5998L16 14.5998C16.1834 14.7831 16.275 15.0165 16.275 15.2998C16.275 15.5831 16.1834 15.8165 16 15.9998C15.8167 16.1831 15.5834 16.2748 15.3 16.2748C15.0167 16.2748 14.7834 16.1831 14.6 15.9998L11.3 12.6998C11.2 12.5998 11.125 12.4873 11.075 12.3623C11.025 12.2373 11 12.1081 11 11.9748V7.9998C11 7.71647 11.0959 7.47897 11.2875 7.2873C11.4792 7.09564 11.7167 6.9998 12 6.9998C12.2834 6.9998 12.5209 7.09564 12.7125 7.2873C12.9042 7.47897 13 7.71647 13 7.9998V11.5998Z" fill="#262626"/>
</svg>
